<!-- GENERATED by examples/export_control_svgs.rs -->
<!-- control: collapsible_pane | appearance: light -->
<svg xmlns="http://www.w3.org/2000/svg" width="240" height="120" viewBox="0 0 240 120">
  <rect x="0" y="0" width="240" height="120" fill="rgba(240,240,240,1.00)" />
  <rect x="0" y="0" width="240" height="44" fill="rgba(243,237,247,1.00)" />
  <line x1="0" y1="44" x2="240" y2="44" stroke="rgba(158,158,158,1.00)" stroke-width="1" />
  <path d="M6 15h1v1h-1zM7 15h1v1h-1zM8 15h1v1h-1zM9 15h1v1h-1zM10 15h1v1h-1zM11 15h1v1h-1zM12 15h1v1h-1zM13 15h1v1h-1zM6 16h1v2h-1zM13 16h1v2h-1zM6 18h1v2h-1zM8 18h1v2h-1zM9 18h1v2h-1zM10 18h1v2h-1zM11 18h1v2h-1zM13 18h1v2h-1zM6 20h1v2h-1zM8 20h1v2h-1zM11 20h1v2h-1zM13 20h1v2h-1zM6 22h1v1h-1zM8 22h1v1h-1zM9 22h1v1h-1zM10 22h1v1h-1zM11 22h1v1h-1zM13 22h1v1h-1zM6 23h1v2h-1zM13 23h1v2h-1zM6 25h1v2h-1zM7 25h1v2h-1zM8 25h1v2h-1zM9 25h1v2h-1zM10 25h1v2h-1zM11 25h1v2h-1zM12 25h1v2h-1zM13 25h1v2h-1z" fill="rgba(0,0,0,1.00)" />
  <path d="M21 15h1v1h-1zM22 15h1v1h-1zM23 15h1v1h-1zM24 15h1v1h-1zM20 16h1v2h-1zM21 16h1v2h-1zM24 16h1v2h-1zM25 16h1v2h-1zM20 18h1v2h-1zM21 18h1v2h-1zM22 18h1v2h-1zM21 20h1v2h-1zM22 20h1v2h-1zM23 20h1v2h-1zM23 22h1v1h-1zM24 22h1v1h-1zM25 22h1v1h-1zM20 23h1v2h-1zM21 23h1v2h-1zM24 23h1v2h-1zM25 23h1v2h-1zM21 25h1v2h-1zM22 25h1v2h-1zM23 25h1v2h-1zM24 25h1v2h-1zM29 18h1v2h-1zM30 18h1v2h-1zM31 18h1v2h-1zM32 18h1v2h-1zM32 20h1v2h-1zM33 20h1v2h-1zM29 22h1v1h-1zM30 22h1v1h-1zM31 22h1v1h-1zM32 22h1v1h-1zM33 22h1v1h-1zM28 23h1v2h-1zM29 23h1v2h-1zM32 23h1v2h-1zM33 23h1v2h-1zM29 25h1v2h-1zM30 25h1v2h-1zM31 25h1v2h-1zM33 25h1v2h-1zM34 25h1v2h-1zM37 18h1v2h-1zM38 18h1v2h-1zM41 18h1v2h-1zM42 18h1v2h-1zM37 20h1v2h-1zM38 20h1v2h-1zM39 20h1v2h-1zM40 20h1v2h-1zM41 20h1v2h-1zM42 20h1v2h-1zM43 20h1v2h-1zM37 22h1v1h-1zM38 22h1v1h-1zM39 22h1v1h-1zM40 22h1v1h-1zM41 22h1v1h-1zM42 22h1v1h-1zM43 22h1v1h-1zM37 23h1v2h-1zM38 23h1v2h-1zM40 23h1v2h-1zM42 23h1v2h-1zM43 23h1v2h-1zM37 25h1v2h-1zM38 25h1v2h-1zM42 25h1v2h-1zM43 25h1v2h-1zM45 18h1v2h-1zM46 18h1v2h-1zM48 18h1v2h-1zM49 18h1v2h-1zM50 18h1v2h-1zM46 20h1v2h-1zM47 20h1v2h-1zM50 20h1v2h-1zM51 20h1v2h-1zM46 22h1v1h-1zM47 22h1v1h-1zM50 22h1v1h-1zM51 22h1v1h-1zM46 23h1v2h-1zM47 23h1v2h-1zM48 23h1v2h-1zM49 23h1v2h-1zM50 23h1v2h-1zM46 25h1v2h-1zM47 25h1v2h-1zM45 27h1v2h-1zM46 27h1v2h-1zM47 27h1v2h-1zM48 27h1v2h-1zM55 15h1v1h-1zM56 15h1v1h-1zM57 15h1v1h-1zM56 16h1v2h-1zM57 16h1v2h-1zM56 18h1v2h-1zM57 18h1v2h-1zM56 20h1v2h-1zM57 20h1v2h-1zM56 22h1v1h-1zM57 22h1v1h-1zM56 23h1v2h-1zM57 23h1v2h-1zM55 25h1v2h-1zM56 25h1v2h-1zM57 25h1v2h-1zM58 25h1v2h-1zM63 18h1v2h-1zM64 18h1v2h-1zM65 18h1v2h-1zM66 18h1v2h-1zM62 20h1v2h-1zM63 20h1v2h-1zM66 20h1v2h-1zM67 20h1v2h-1zM62 22h1v1h-1zM63 22h1v1h-1zM64 22h1v1h-1zM65 22h1v1h-1zM66 22h1v1h-1zM67 22h1v1h-1zM62 23h1v2h-1zM63 23h1v2h-1zM63 25h1v2h-1zM64 25h1v2h-1zM65 25h1v2h-1zM66 25h1v2h-1z" fill="rgba(0,0,0,1.00)" />
  <rect x="0" y="44" width="240" height="76" fill="rgba(236,230,240,1.00)" />
  <line x1="0" y1="44" x2="0" y2="120" stroke="rgba(158,158,158,1.00)" stroke-width="1" />
  <line x1="240" y1="44" x2="240" y2="120" stroke="rgba(158,158,158,1.00)" stroke-width="1" />
  <line x1="0" y1="120" x2="240" y2="120" stroke="rgba(158,158,158,1.00)" stroke-width="1" />
</svg>
