<!-- GENERATED by examples/export_control_svgs.rs -->
<!-- control: number_picker | appearance: dark -->
<svg xmlns="http://www.w3.org/2000/svg" width="240" height="120" viewBox="0 0 240 120">
  <rect x="0" y="0" width="240" height="120" fill="rgba(18,18,18,1.00)" />
  <rect x="0" y="0" width="240" height="120" rx="4" ry="4" fill="rgba(30,30,33,1.00)" />
  <rect x="0" y="46" width="240" height="28" fill="rgba(130,130,130,1.00)" />
  <path d="M121.14 26.31L120.10 26.31L119.10 26.76L117.82 27.08L117.82 27.95L119.78 27.95L119.78 36.16L117.32 36.16L117.32 37.30L123.35 37.30L123.35 36.16L121.14 36.16Z" fill="rgba(225,225,225,0.75)" fill-rule="nonzero" data-text="1" />
  <path d="M122.66 64.07L123.06 63.27L123.35 62.28L123.59 59.76L123.35 57.27L123.06 56.30L122.66 55.51L122.17 54.89L121.58 54.46L120.92 54.20L120.17 54.11L119.42 54.20L118.75 54.46L118.17 54.89L117.67 55.51L117.28 56.30L116.99 57.27L116.75 59.76L116.99 62.28L117.28 63.27L117.67 64.07L118.17 64.69L118.75 65.14L119.42 65.41L120.17 65.50L120.17 65.50L120.92 65.41L121.58 65.14L122.17 64.69ZM118.07 59.76L118.22 57.70L118.65 56.27L119.32 55.45L120.17 55.19L121.02 55.45L121.69 56.27L122.12 57.70L122.27 59.76L122.12 61.85L121.69 63.28L121.02 64.12L120.17 64.39L120.17 64.39L119.32 64.12L118.65 63.28L118.22 61.85Z" fill="rgba(0,0,0,1.00)" fill-rule="nonzero" data-text="1" />
  <rect x="0" y="0" width="240" height="120" fill="none" stroke="rgba(130,130,130,1.00)" stroke-width="1" />
</svg>
