<!-- GENERATED by examples/export_control_svgs.rs -->
<!-- control: rating | appearance: light -->
<svg xmlns="http://www.w3.org/2000/svg" width="240" height="120" viewBox="0 0 240 120">
  <rect x="0" y="0" width="240" height="120" fill="rgba(240,240,240,1.00)" />
  <rect x="52" y="48" width="136" height="24" fill="rgba(180,180,180,1.00)" />
  <path d="M60 53h1v1h-1zM61 53h1v1h-1zM62 53h1v1h-1zM63 53h1v1h-1zM64 53h1v1h-1zM65 53h1v1h-1zM66 53h1v1h-1zM67 53h1v1h-1zM60 54h1v2h-1zM67 54h1v2h-1zM60 56h1v2h-1zM62 56h1v2h-1zM63 56h1v2h-1zM64 56h1v2h-1zM65 56h1v2h-1zM67 56h1v2h-1zM60 58h1v2h-1zM62 58h1v2h-1zM65 58h1v2h-1zM67 58h1v2h-1zM60 60h1v1h-1zM62 60h1v1h-1zM63 60h1v1h-1zM64 60h1v1h-1zM65 60h1v1h-1zM67 60h1v1h-1zM60 61h1v2h-1zM67 61h1v2h-1zM60 63h1v2h-1zM61 63h1v2h-1zM62 63h1v2h-1zM63 63h1v2h-1zM64 63h1v2h-1zM65 63h1v2h-1zM66 63h1v2h-1zM67 63h1v2h-1z" fill="rgba(63,63,63,1.00)" />
  <path d="M88 53h1v1h-1zM89 53h1v1h-1zM90 53h1v1h-1zM91 53h1v1h-1zM92 53h1v1h-1zM93 53h1v1h-1zM94 53h1v1h-1zM95 53h1v1h-1zM88 54h1v2h-1zM95 54h1v2h-1zM88 56h1v2h-1zM90 56h1v2h-1zM91 56h1v2h-1zM92 56h1v2h-1zM93 56h1v2h-1zM95 56h1v2h-1zM88 58h1v2h-1zM90 58h1v2h-1zM93 58h1v2h-1zM95 58h1v2h-1zM88 60h1v1h-1zM90 60h1v1h-1zM91 60h1v1h-1zM92 60h1v1h-1zM93 60h1v1h-1zM95 60h1v1h-1zM88 61h1v2h-1zM95 61h1v2h-1zM88 63h1v2h-1zM89 63h1v2h-1zM90 63h1v2h-1zM91 63h1v2h-1zM92 63h1v2h-1zM93 63h1v2h-1zM94 63h1v2h-1zM95 63h1v2h-1z" fill="rgba(63,63,63,1.00)" />
  <path d="M116 53h1v1h-1zM117 53h1v1h-1zM118 53h1v1h-1zM119 53h1v1h-1zM120 53h1v1h-1zM121 53h1v1h-1zM122 53h1v1h-1zM123 53h1v1h-1zM116 54h1v2h-1zM123 54h1v2h-1zM116 56h1v2h-1zM118 56h1v2h-1zM119 56h1v2h-1zM120 56h1v2h-1zM121 56h1v2h-1zM123 56h1v2h-1zM116 58h1v2h-1zM118 58h1v2h-1zM121 58h1v2h-1zM123 58h1v2h-1zM116 60h1v1h-1zM118 60h1v1h-1zM119 60h1v1h-1zM120 60h1v1h-1zM121 60h1v1h-1zM123 60h1v1h-1zM116 61h1v2h-1zM123 61h1v2h-1zM116 63h1v2h-1zM117 63h1v2h-1zM118 63h1v2h-1zM119 63h1v2h-1zM120 63h1v2h-1zM121 63h1v2h-1zM122 63h1v2h-1zM123 63h1v2h-1z" fill="rgba(63,63,63,1.00)" />
  <path d="M144 53h1v1h-1zM145 53h1v1h-1zM146 53h1v1h-1zM147 53h1v1h-1zM148 53h1v1h-1zM149 53h1v1h-1zM150 53h1v1h-1zM151 53h1v1h-1zM144 54h1v2h-1zM151 54h1v2h-1zM144 56h1v2h-1zM146 56h1v2h-1zM147 56h1v2h-1zM148 56h1v2h-1zM149 56h1v2h-1zM151 56h1v2h-1zM144 58h1v2h-1zM146 58h1v2h-1zM149 58h1v2h-1zM151 58h1v2h-1zM144 60h1v1h-1zM146 60h1v1h-1zM147 60h1v1h-1zM148 60h1v1h-1zM149 60h1v1h-1zM151 60h1v1h-1zM144 61h1v2h-1zM151 61h1v2h-1zM144 63h1v2h-1zM145 63h1v2h-1zM146 63h1v2h-1zM147 63h1v2h-1zM148 63h1v2h-1zM149 63h1v2h-1zM150 63h1v2h-1zM151 63h1v2h-1z" fill="rgba(63,63,63,1.00)" />
  <path d="M172 53h1v1h-1zM173 53h1v1h-1zM174 53h1v1h-1zM175 53h1v1h-1zM176 53h1v1h-1zM177 53h1v1h-1zM178 53h1v1h-1zM179 53h1v1h-1zM172 54h1v2h-1zM179 54h1v2h-1zM172 56h1v2h-1zM174 56h1v2h-1zM175 56h1v2h-1zM176 56h1v2h-1zM177 56h1v2h-1zM179 56h1v2h-1zM172 58h1v2h-1zM174 58h1v2h-1zM177 58h1v2h-1zM179 58h1v2h-1zM172 60h1v1h-1zM174 60h1v1h-1zM175 60h1v1h-1zM176 60h1v1h-1zM177 60h1v1h-1zM179 60h1v1h-1zM172 61h1v2h-1zM179 61h1v2h-1zM172 63h1v2h-1zM173 63h1v2h-1zM174 63h1v2h-1zM175 63h1v2h-1zM176 63h1v2h-1zM177 63h1v2h-1zM178 63h1v2h-1zM179 63h1v2h-1z" fill="rgba(63,63,63,1.00)" />
</svg>
