<!-- GENERATED by examples/export_control_svgs.rs -->
<!-- control: stepper | appearance: light -->
<svg xmlns="http://www.w3.org/2000/svg" width="240" height="120" viewBox="0 0 240 120">
  <rect x="0" y="0" width="240" height="120" fill="rgba(240,240,240,1.00)" />
  <rect x="0" y="36" width="240" height="48" rx="4" ry="4" fill="rgba(180,180,180,1.00)" />
  <rect x="0" y="36" width="240" height="48" rx="4" ry="4" fill="none" stroke="rgba(158,158,158,1.00)" stroke-width="1" />
  <rect x="2" y="38" width="48" height="44" rx="3" ry="3" fill="rgba(166,166,166,1.00)" />
  <rect x="2" y="38" width="48" height="44" rx="3" ry="3" fill="none" stroke="rgba(158,158,158,1.00)" stroke-width="1" />
  <path d="M 18 63 L 18 61 L 34 61 L 34 63 Z" fill="rgba(0,0,0,1.00)" stroke="none" stroke-width="0" />
  <rect x="190" y="38" width="48" height="44" rx="3" ry="3" fill="rgba(166,166,166,1.00)" />
  <rect x="190" y="38" width="48" height="44" rx="3" ry="3" fill="none" stroke="rgba(158,158,158,1.00)" stroke-width="1" />
  <path d="M 213 63 L 206 63 L 206 61 L 213 61 L 213 54 L 215 54 L 215 61 L 222 61 L 222 63 L 215 63 L 215 70 L 213 70 Z" fill="rgba(0,0,0,1.00)" stroke="none" stroke-width="0" />
  <path d="M122.22 63.33L122.59 62.58L122.86 61.66L123.08 59.31L122.86 56.99L122.59 56.08L122.22 55.34L121.76 54.77L121.21 54.36L120.59 54.12L119.89 54.04L119.19 54.12L118.57 54.36L118.02 54.77L117.56 55.34L117.19 56.08L116.92 56.99L116.70 59.31L116.92 61.66L117.19 62.58L117.56 63.33L118.02 63.91L118.57 64.33L119.19 64.58L119.89 64.66L119.89 64.66L120.59 64.58L121.21 64.33L121.76 63.91ZM117.93 59.31L118.07 57.38L118.48 56.06L119.10 55.29L119.89 55.04L120.69 55.29L121.31 56.06L121.71 57.38L121.85 59.31L121.71 61.26L121.31 62.60L120.69 63.38L119.89 63.63L119.89 63.63L119.10 63.38L118.48 62.60L118.07 61.26Z" fill="rgba(0,0,0,1.00)" fill-rule="nonzero" data-text="1" />
</svg>
